<svg width="24" height="24" fill="none" xmlns="http://www.w3.org/2000/svg"><defs><symbol id="icon"><path fill-rule="evenodd" clip-rule="evenodd" d="M16.2923 16.9994C14.882 18.2445 13.0292 19 11 19C6.58172 19 3 15.4183 3 11C3 6.58172 6.58172 3 11 3C15.4183 3 19 6.58172 19 11C19 13.0292 18.2445 14.8819 16.9994 16.2923L21.3536 20.6465L20.6465 21.3536L16.2923 16.9994ZM18 11C18 14.866 14.866 18 11 18C7.13401 18 4 14.866 4 11C4 7.13401 7.13401 4 11 4C14.866 4 18 7.13401 18 11Z" fill="var(--icon-color, currentColor)"/></symbol></defs><view viewBox="0 0 24 24" id="light-primary"/><use x="0" y="0" href="#icon" style="--icon-color:#141414"/></svg>